<svg width="679" height="67" viewBox="0 0 679 67" fill="none" xmlns="http://www.w3.org/2000/svg">
<rect x="351.5" y="0.5" width="327" height="66" rx="23.5" fill="#D8DFE8"/>
<rect x="351.5" y="0.5" width="327" height="66" rx="23.5" fill="white"/>
<rect x="351.5" y="0.5" width="327" height="66" rx="23.5" stroke="#0A3871"/>
<path d="M460.961 39H457.37V27.3636H461.12C462.249 27.3636 463.215 27.5966 464.018 28.0625C464.821 28.5246 465.436 29.1894 465.864 30.0568C466.292 30.9205 466.506 31.9545 466.506 33.1591C466.506 34.3712 466.29 35.4148 465.859 36.2898C465.427 37.161 464.798 37.8314 463.972 38.3011C463.147 38.767 462.143 39 460.961 39ZM458.779 37.75H460.87C461.832 37.75 462.629 37.5644 463.262 37.1932C463.895 36.822 464.366 36.2936 464.677 35.608C464.987 34.9223 465.143 34.1061 465.143 33.1591C465.143 32.2197 464.989 31.411 464.683 30.733C464.376 30.0511 463.917 29.5284 463.308 29.1648C462.698 28.7973 461.938 28.6136 461.029 28.6136H458.779V37.75ZM472.347 39.1818C471.506 39.1818 470.781 38.9962 470.171 38.625C469.565 38.25 469.097 37.7273 468.768 37.0568C468.442 36.3826 468.279 35.5985 468.279 34.7045C468.279 33.8106 468.442 33.0227 468.768 32.3409C469.097 31.6553 469.556 31.1212 470.143 30.7386C470.734 30.3523 471.423 30.1591 472.211 30.1591C472.665 30.1591 473.114 30.2348 473.558 30.3864C474.001 30.5379 474.404 30.7841 474.768 31.125C475.131 31.4621 475.421 31.9091 475.637 32.4659C475.853 33.0227 475.961 33.7083 475.961 34.5227V35.0909H469.234V33.9318H474.597C474.597 33.4394 474.499 33 474.302 32.6136C474.109 32.2273 473.832 31.9223 473.472 31.6989C473.116 31.4754 472.696 31.3636 472.211 31.3636C471.677 31.3636 471.215 31.4962 470.825 31.7614C470.438 32.0227 470.141 32.3636 469.933 32.7841C469.724 33.2045 469.62 33.6553 469.62 34.1364V34.9091C469.62 35.5682 469.734 36.1269 469.961 36.5852C470.192 37.0398 470.512 37.3864 470.921 37.625C471.33 37.8598 471.806 37.9773 472.347 37.9773C472.7 37.9773 473.018 37.928 473.302 37.8295C473.59 37.7273 473.838 37.5758 474.046 37.375C474.254 37.1705 474.415 36.9167 474.529 36.6136L475.825 36.9773C475.688 37.4167 475.459 37.803 475.137 38.1364C474.815 38.4659 474.417 38.7235 473.944 38.9091C473.47 39.0909 472.938 39.1818 472.347 39.1818ZM484.183 32.2273L482.978 32.5682C482.902 32.3674 482.79 32.1723 482.643 31.983C482.499 31.7898 482.302 31.6307 482.052 31.5057C481.802 31.3807 481.482 31.3182 481.092 31.3182C480.558 31.3182 480.112 31.4413 479.756 31.6875C479.404 31.9299 479.228 32.2386 479.228 32.6136C479.228 32.947 479.349 33.2102 479.592 33.4034C479.834 33.5966 480.213 33.7576 480.728 33.8864L482.023 34.2045C482.804 34.3939 483.385 34.6837 483.768 35.0739C484.15 35.4602 484.342 35.9583 484.342 36.5682C484.342 37.0682 484.198 37.5152 483.91 37.9091C483.626 38.303 483.228 38.6136 482.717 38.8409C482.205 39.0682 481.611 39.1818 480.933 39.1818C480.042 39.1818 479.306 38.9886 478.722 38.6023C478.139 38.2159 477.77 37.6515 477.614 36.9091L478.887 36.5909C479.008 37.0606 479.237 37.4129 479.575 37.6477C479.915 37.8826 480.361 38 480.91 38C481.535 38 482.031 37.8674 482.398 37.6023C482.77 37.3333 482.955 37.0114 482.955 36.6364C482.955 36.3333 482.849 36.0795 482.637 35.875C482.425 35.6667 482.099 35.5114 481.66 35.4091L480.205 35.0682C479.406 34.8788 478.819 34.5852 478.444 34.1875C478.073 33.786 477.887 33.2841 477.887 32.6818C477.887 32.1894 478.025 31.7538 478.302 31.375C478.582 30.9962 478.963 30.6989 479.444 30.483C479.929 30.267 480.478 30.1591 481.092 30.1591C481.955 30.1591 482.633 30.3485 483.126 30.7273C483.622 31.1061 483.974 31.6061 484.183 32.2273ZM489.906 39.1818C489.087 39.1818 488.383 38.9886 487.792 38.6023C487.201 38.2159 486.746 37.6837 486.428 37.0057C486.11 36.3277 485.951 35.553 485.951 34.6818C485.951 33.7955 486.114 33.0133 486.44 32.3352C486.769 31.6534 487.228 31.1212 487.815 30.7386C488.406 30.3523 489.095 30.1591 489.883 30.1591C490.496 30.1591 491.049 30.2727 491.542 30.5C492.034 30.7273 492.438 31.0455 492.752 31.4545C493.067 31.8636 493.262 32.3409 493.337 32.8864H491.996C491.894 32.4886 491.667 32.1364 491.315 31.8295C490.966 31.5189 490.496 31.3636 489.906 31.3636C489.383 31.3636 488.924 31.5 488.531 31.7727C488.14 32.0417 487.835 32.4223 487.616 32.9148C487.4 33.4034 487.292 33.9773 487.292 34.6364C487.292 35.3106 487.398 35.8977 487.61 36.3977C487.826 36.8977 488.129 37.286 488.519 37.5625C488.913 37.839 489.375 37.9773 489.906 37.9773C490.254 37.9773 490.57 37.9167 490.854 37.7955C491.138 37.6742 491.379 37.5 491.576 37.2727C491.773 37.0455 491.913 36.7727 491.996 36.4545H493.337C493.262 36.9697 493.074 37.4337 492.775 37.8466C492.479 38.2557 492.087 38.5814 491.599 38.8239C491.114 39.0625 490.549 39.1818 489.906 39.1818ZM495.298 39V30.2727H496.593V31.5909H496.684C496.843 31.1591 497.131 30.8087 497.548 30.5398C497.964 30.2708 498.434 30.1364 498.957 30.1364C499.055 30.1364 499.178 30.1383 499.326 30.142C499.474 30.1458 499.585 30.1515 499.661 30.1591V31.5227C499.616 31.5114 499.512 31.4943 499.349 31.4716C499.19 31.4451 499.021 31.4318 498.843 31.4318C498.419 31.4318 498.04 31.5208 497.707 31.6989C497.377 31.8731 497.116 32.1155 496.923 32.4261C496.733 32.733 496.638 33.0833 496.638 33.4773V39H495.298ZM501.251 39V30.2727H502.592V39H501.251ZM501.933 28.8182C501.671 28.8182 501.446 28.7292 501.256 28.5511C501.071 28.3731 500.978 28.1591 500.978 27.9091C500.978 27.6591 501.071 27.4451 501.256 27.267C501.446 27.089 501.671 27 501.933 27C502.194 27 502.417 27.089 502.603 27.267C502.792 27.4451 502.887 27.6591 502.887 27.9091C502.887 28.1591 502.792 28.3731 502.603 28.5511C502.417 28.7292 502.194 28.8182 501.933 28.8182ZM505.048 42.2727V30.2727H506.343V31.6591H506.502C506.601 31.5076 506.737 31.3144 506.911 31.0795C507.089 30.8409 507.343 30.6288 507.673 30.4432C508.006 30.2538 508.457 30.1591 509.025 30.1591C509.76 30.1591 510.407 30.3428 510.968 30.7102C511.529 31.0777 511.966 31.5985 512.281 32.2727C512.595 32.947 512.752 33.7424 512.752 34.6591C512.752 35.5833 512.595 36.3845 512.281 37.0625C511.966 37.7367 511.531 38.2595 510.974 38.6307C510.417 38.9981 509.775 39.1818 509.048 39.1818C508.487 39.1818 508.038 39.089 507.701 38.9034C507.364 38.714 507.104 38.5 506.923 38.2614C506.741 38.0189 506.601 37.8182 506.502 37.6591H506.388V42.2727H505.048ZM506.366 34.6364C506.366 35.2955 506.462 35.8769 506.656 36.3807C506.849 36.8807 507.131 37.2727 507.502 37.5568C507.873 37.8371 508.328 37.9773 508.866 37.9773C509.426 37.9773 509.894 37.8295 510.269 37.5341C510.648 37.2348 510.932 36.8333 511.121 36.3295C511.315 35.822 511.411 35.2576 511.411 34.6364C511.411 34.0227 511.317 33.4697 511.127 32.9773C510.942 32.4811 510.659 32.089 510.281 31.8011C509.906 31.5095 509.434 31.3636 508.866 31.3636C508.32 31.3636 507.862 31.5019 507.491 31.7784C507.12 32.0511 506.839 32.4337 506.65 32.9261C506.46 33.4148 506.366 33.9848 506.366 34.6364ZM518.593 30.2727V31.4091H514.07V30.2727H518.593ZM515.388 28.1818H516.729V36.5C516.729 36.8788 516.784 37.1629 516.894 37.3523C517.008 37.5379 517.152 37.6629 517.326 37.7273C517.504 37.7879 517.692 37.8182 517.888 37.8182C518.036 37.8182 518.157 37.8106 518.252 37.7955C518.347 37.7765 518.423 37.7614 518.479 37.75L518.752 38.9545C518.661 38.9886 518.534 39.0227 518.371 39.0568C518.209 39.0947 518.002 39.1136 517.752 39.1136C517.373 39.1136 517.002 39.0322 516.638 38.8693C516.279 38.7064 515.979 38.4583 515.741 38.125C515.506 37.7917 515.388 37.3712 515.388 36.8636V28.1818ZM524.062 39.1818C523.274 39.1818 522.583 38.9943 521.988 38.6193C521.397 38.2443 520.935 37.7197 520.602 37.0455C520.272 36.3712 520.107 35.5833 520.107 34.6818C520.107 33.7727 520.272 32.9792 520.602 32.3011C520.935 31.6231 521.397 31.0966 521.988 30.7216C522.583 30.3466 523.274 30.1591 524.062 30.1591C524.85 30.1591 525.539 30.3466 526.13 30.7216C526.725 31.0966 527.187 31.6231 527.516 32.3011C527.85 32.9792 528.016 33.7727 528.016 34.6818C528.016 35.5833 527.85 36.3712 527.516 37.0455C527.187 37.7197 526.725 38.2443 526.13 38.6193C525.539 38.9943 524.85 39.1818 524.062 39.1818ZM524.062 37.9773C524.66 37.9773 525.153 37.8239 525.539 37.517C525.925 37.2102 526.211 36.8068 526.397 36.3068C526.583 35.8068 526.675 35.2652 526.675 34.6818C526.675 34.0985 526.583 33.5549 526.397 33.0511C526.211 32.5473 525.925 32.1402 525.539 31.8295C525.153 31.5189 524.66 31.3636 524.062 31.3636C523.463 31.3636 522.971 31.5189 522.585 31.8295C522.198 32.1402 521.912 32.5473 521.727 33.0511C521.541 33.5549 521.448 34.0985 521.448 34.6818C521.448 35.2652 521.541 35.8068 521.727 36.3068C521.912 36.8068 522.198 37.2102 522.585 37.517C522.971 37.8239 523.463 37.9773 524.062 37.9773ZM533.586 42.4545C532.938 42.4545 532.381 42.3712 531.915 42.2045C531.45 42.0417 531.061 41.8258 530.751 41.5568C530.444 41.2917 530.2 41.0076 530.018 40.7045L531.086 39.9545C531.207 40.1136 531.361 40.2955 531.546 40.5C531.732 40.7083 531.986 40.8883 532.308 41.0398C532.633 41.1951 533.059 41.2727 533.586 41.2727C534.29 41.2727 534.872 41.1023 535.33 40.7614C535.789 40.4205 536.018 39.8864 536.018 39.1591V37.3864H535.904C535.806 37.5455 535.665 37.7424 535.484 37.9773C535.306 38.2083 535.048 38.4148 534.711 38.5966C534.378 38.7746 533.927 38.8636 533.359 38.8636C532.654 38.8636 532.022 38.697 531.461 38.3636C530.904 38.0303 530.463 37.5455 530.137 36.9091C529.815 36.2727 529.654 35.5 529.654 34.5909C529.654 33.697 529.811 32.9186 530.126 32.2557C530.44 31.589 530.878 31.0739 531.438 30.7102C531.999 30.3428 532.647 30.1591 533.381 30.1591C533.95 30.1591 534.4 30.2538 534.734 30.4432C535.071 30.6288 535.328 30.8409 535.506 31.0795C535.688 31.3144 535.828 31.5076 535.927 31.6591H536.063V30.2727H537.359V39.25C537.359 40 537.188 40.6098 536.847 41.0795C536.51 41.553 536.056 41.8996 535.484 42.1193C534.915 42.3428 534.283 42.4545 533.586 42.4545ZM533.54 37.6591C534.078 37.6591 534.533 37.536 534.904 37.2898C535.275 37.0436 535.558 36.6894 535.751 36.2273C535.944 35.7652 536.04 35.2121 536.04 34.5682C536.04 33.9394 535.946 33.3845 535.756 32.9034C535.567 32.4223 535.287 32.0455 534.915 31.7727C534.544 31.5 534.086 31.3636 533.54 31.3636C532.972 31.3636 532.499 31.5076 532.12 31.7955C531.745 32.0833 531.463 32.4697 531.273 32.9545C531.088 33.4394 530.995 33.9773 530.995 34.5682C530.995 35.1742 531.09 35.7102 531.279 36.1761C531.472 36.6383 531.756 37.0019 532.131 37.267C532.51 37.5284 532.98 37.6591 533.54 37.6591ZM539.813 39V30.2727H541.109V31.5909H541.2C541.359 31.1591 541.647 30.8087 542.063 30.5398C542.48 30.2708 542.95 30.1364 543.472 30.1364C543.571 30.1364 543.694 30.1383 543.842 30.142C543.989 30.1458 544.101 30.1515 544.177 30.1591V31.5227C544.131 31.5114 544.027 31.4943 543.864 31.4716C543.705 31.4451 543.537 31.4318 543.359 31.4318C542.934 31.4318 542.556 31.5208 542.222 31.6989C541.893 31.8731 541.631 32.1155 541.438 32.4261C541.249 32.733 541.154 33.0833 541.154 33.4773V39H539.813ZM548.335 39.2045C547.781 39.2045 547.28 39.1004 546.829 38.892C546.378 38.6799 546.02 38.375 545.755 37.9773C545.49 37.5758 545.357 37.0909 545.357 36.5227C545.357 36.0227 545.456 35.6174 545.653 35.3068C545.85 34.9924 546.113 34.7462 546.442 34.5682C546.772 34.3902 547.136 34.2576 547.533 34.1705C547.935 34.0795 548.338 34.0076 548.744 33.9545C549.274 33.8864 549.704 33.8352 550.033 33.8011C550.367 33.7633 550.609 33.7008 550.761 33.6136C550.916 33.5265 550.994 33.375 550.994 33.1591V33.1136C550.994 32.553 550.84 32.1174 550.533 31.8068C550.23 31.4962 549.77 31.3409 549.153 31.3409C548.513 31.3409 548.011 31.4811 547.647 31.7614C547.283 32.0417 547.028 32.3409 546.88 32.6591L545.607 32.2045C545.835 31.6742 546.138 31.2614 546.516 30.9659C546.899 30.6667 547.316 30.4583 547.766 30.3409C548.221 30.2197 548.668 30.1591 549.107 30.1591C549.388 30.1591 549.71 30.1932 550.073 30.2614C550.441 30.3258 550.795 30.4602 551.136 30.6648C551.48 30.8693 551.766 31.178 551.994 31.5909C552.221 32.0038 552.335 32.5568 552.335 33.25V39H550.994V37.8182H550.925C550.835 38.0076 550.683 38.2102 550.471 38.4261C550.259 38.642 549.977 38.8258 549.624 38.9773C549.272 39.1288 548.842 39.2045 548.335 39.2045ZM548.539 38C549.069 38 549.516 37.8958 549.88 37.6875C550.247 37.4792 550.524 37.2102 550.71 36.8807C550.899 36.5511 550.994 36.2045 550.994 35.8409V34.6136C550.937 34.6818 550.812 34.7443 550.619 34.8011C550.429 34.8542 550.21 34.9015 549.96 34.9432C549.713 34.9811 549.473 35.0152 549.238 35.0455C549.007 35.072 548.819 35.0947 548.675 35.1136C548.327 35.1591 548.001 35.233 547.698 35.3352C547.399 35.4337 547.156 35.5833 546.971 35.7841C546.789 35.9811 546.698 36.25 546.698 36.5909C546.698 37.0568 546.871 37.4091 547.215 37.6477C547.564 37.8826 548.005 38 548.539 38ZM558.668 30.2727V31.4091H553.964V30.2727H558.668ZM555.373 39V29.0682C555.373 28.5682 555.49 28.1515 555.725 27.8182C555.96 27.4848 556.265 27.2348 556.64 27.0682C557.015 26.9015 557.411 26.8182 557.827 26.8182C558.157 26.8182 558.426 26.8447 558.634 26.8977C558.843 26.9508 558.998 27 559.1 27.0455L558.714 28.2045C558.646 28.1818 558.551 28.1534 558.43 28.1193C558.312 28.0852 558.157 28.0682 557.964 28.0682C557.521 28.0682 557.201 28.1799 557.004 28.4034C556.81 28.6269 556.714 28.9545 556.714 29.3864V39H555.373ZM562.866 39.2045C562.313 39.2045 561.811 39.1004 561.36 38.892C560.909 38.6799 560.551 38.375 560.286 37.9773C560.021 37.5758 559.888 37.0909 559.888 36.5227C559.888 36.0227 559.987 35.6174 560.184 35.3068C560.381 34.9924 560.644 34.7462 560.974 34.5682C561.303 34.3902 561.667 34.2576 562.065 34.1705C562.466 34.0795 562.87 34.0076 563.275 33.9545C563.805 33.8864 564.235 33.8352 564.565 33.8011C564.898 33.7633 565.14 33.7008 565.292 33.6136C565.447 33.5265 565.525 33.375 565.525 33.1591V33.1136C565.525 32.553 565.371 32.1174 565.065 31.8068C564.762 31.4962 564.301 31.3409 563.684 31.3409C563.044 31.3409 562.542 31.4811 562.178 31.7614C561.815 32.0417 561.559 32.3409 561.411 32.6591L560.138 32.2045C560.366 31.6742 560.669 31.2614 561.048 30.9659C561.43 30.6667 561.847 30.4583 562.298 30.3409C562.752 30.2197 563.199 30.1591 563.638 30.1591C563.919 30.1591 564.241 30.1932 564.604 30.2614C564.972 30.3258 565.326 30.4602 565.667 30.6648C566.012 30.8693 566.298 31.178 566.525 31.5909C566.752 32.0038 566.866 32.5568 566.866 33.25V39H565.525V37.8182H565.457C565.366 38.0076 565.214 38.2102 565.002 38.4261C564.79 38.642 564.508 38.8258 564.156 38.9773C563.803 39.1288 563.373 39.2045 562.866 39.2045ZM563.07 38C563.601 38 564.048 37.8958 564.411 37.6875C564.779 37.4792 565.055 37.2102 565.241 36.8807C565.43 36.5511 565.525 36.2045 565.525 35.8409V34.6136C565.468 34.6818 565.343 34.7443 565.15 34.8011C564.96 34.8542 564.741 34.9015 564.491 34.9432C564.245 34.9811 564.004 35.0152 563.769 35.0455C563.538 35.072 563.351 35.0947 563.207 35.1136C562.858 35.1591 562.532 35.233 562.229 35.3352C561.93 35.4337 561.688 35.5833 561.502 35.7841C561.32 35.9811 561.229 36.25 561.229 36.5909C561.229 37.0568 561.402 37.4091 561.746 37.6477C562.095 37.8826 562.536 38 563.07 38ZM569.313 39V30.2727H570.609V31.5909H570.7C570.859 31.1591 571.147 30.8087 571.563 30.5398C571.98 30.2708 572.45 30.1364 572.972 30.1364C573.071 30.1364 573.194 30.1383 573.342 30.142C573.489 30.1458 573.601 30.1515 573.677 30.1591V31.5227C573.631 31.5114 573.527 31.4943 573.364 31.4716C573.205 31.4451 573.037 31.4318 572.859 31.4318C572.434 31.4318 572.056 31.5208 571.722 31.6989C571.393 31.8731 571.131 32.1155 570.938 32.4261C570.749 32.733 570.654 33.0833 570.654 33.4773V39H569.313Z" fill="#0A3871"/>
<rect width="328" height="67" rx="24" fill="#195299"/>
<path d="M128.968 31H127.559C127.476 30.5947 127.33 30.2386 127.121 29.9318C126.917 29.625 126.667 29.3674 126.371 29.1591C126.08 28.947 125.756 28.7879 125.4 28.6818C125.044 28.5758 124.673 28.5227 124.286 28.5227C123.582 28.5227 122.943 28.7008 122.371 29.0568C121.803 29.4129 121.351 29.9375 121.013 30.6307C120.68 31.3239 120.513 32.1742 120.513 33.1818C120.513 34.1894 120.68 35.0398 121.013 35.733C121.351 36.4261 121.803 36.9508 122.371 37.3068C122.943 37.6629 123.582 37.8409 124.286 37.8409C124.673 37.8409 125.044 37.7879 125.4 37.6818C125.756 37.5758 126.08 37.4186 126.371 37.2102C126.667 36.9981 126.917 36.7386 127.121 36.4318C127.33 36.1212 127.476 35.7652 127.559 35.3636H128.968C128.862 35.9583 128.669 36.4905 128.388 36.9602C128.108 37.4299 127.76 37.8295 127.343 38.1591C126.926 38.4848 126.459 38.733 125.94 38.9034C125.424 39.0739 124.873 39.1591 124.286 39.1591C123.294 39.1591 122.411 38.9167 121.638 38.4318C120.866 37.947 120.258 37.2576 119.815 36.3636C119.371 35.4697 119.15 34.4091 119.15 33.1818C119.15 31.9545 119.371 30.8939 119.815 30C120.258 29.1061 120.866 28.4167 121.638 27.9318C122.411 27.447 123.294 27.2045 124.286 27.2045C124.873 27.2045 125.424 27.2898 125.94 27.4602C126.459 27.6307 126.926 27.8807 127.343 28.2102C127.76 28.536 128.108 28.9337 128.388 29.4034C128.669 29.8693 128.862 30.4015 128.968 31ZM131.063 39V30.2727H132.359V31.5909H132.45C132.609 31.1591 132.897 30.8087 133.313 30.5398C133.73 30.2708 134.2 30.1364 134.722 30.1364C134.821 30.1364 134.944 30.1383 135.092 30.142C135.239 30.1458 135.351 30.1515 135.427 30.1591V31.5227C135.381 31.5114 135.277 31.4943 135.114 31.4716C134.955 31.4451 134.787 31.4318 134.609 31.4318C134.184 31.4318 133.806 31.5208 133.472 31.6989C133.143 31.8731 132.881 32.1155 132.688 32.4261C132.499 32.733 132.404 33.0833 132.404 33.4773V39H131.063ZM137.016 39V30.2727H138.357V39H137.016ZM137.698 28.8182C137.437 28.8182 137.211 28.7292 137.022 28.5511C136.836 28.3731 136.744 28.1591 136.744 27.9091C136.744 27.6591 136.836 27.4451 137.022 27.267C137.211 27.089 137.437 27 137.698 27C137.96 27 138.183 27.089 138.369 27.267C138.558 27.4451 138.653 27.6591 138.653 27.9091C138.653 28.1591 138.558 28.3731 138.369 28.5511C138.183 28.7292 137.96 28.8182 137.698 28.8182ZM140.813 42.2727V30.2727H142.109V31.6591H142.268C142.366 31.5076 142.503 31.3144 142.677 31.0795C142.855 30.8409 143.109 30.6288 143.438 30.4432C143.772 30.2538 144.222 30.1591 144.79 30.1591C145.525 30.1591 146.173 30.3428 146.734 30.7102C147.294 31.0777 147.732 31.5985 148.046 32.2727C148.361 32.947 148.518 33.7424 148.518 34.6591C148.518 35.5833 148.361 36.3845 148.046 37.0625C147.732 37.7367 147.296 38.2595 146.739 38.6307C146.183 38.9981 145.54 39.1818 144.813 39.1818C144.253 39.1818 143.804 39.089 143.467 38.9034C143.129 38.714 142.87 38.5 142.688 38.2614C142.506 38.0189 142.366 37.8182 142.268 37.6591H142.154V42.2727H140.813ZM142.131 34.6364C142.131 35.2955 142.228 35.8769 142.421 36.3807C142.614 36.8807 142.897 37.2727 143.268 37.5568C143.639 37.8371 144.094 37.9773 144.631 37.9773C145.192 37.9773 145.66 37.8295 146.035 37.5341C146.414 37.2348 146.698 36.8333 146.887 36.3295C147.08 35.822 147.177 35.2576 147.177 34.6364C147.177 34.0227 147.082 33.4697 146.893 32.9773C146.707 32.4811 146.425 32.089 146.046 31.8011C145.671 31.5095 145.2 31.3636 144.631 31.3636C144.086 31.3636 143.628 31.5019 143.256 31.7784C142.885 32.0511 142.605 32.4337 142.415 32.9261C142.226 33.4148 142.131 33.9848 142.131 34.6364ZM154.359 30.2727V31.4091H149.836V30.2727H154.359ZM151.154 28.1818H152.495V36.5C152.495 36.8788 152.55 37.1629 152.66 37.3523C152.773 37.5379 152.917 37.6629 153.092 37.7273C153.27 37.7879 153.457 37.8182 153.654 37.8182C153.802 37.8182 153.923 37.8106 154.018 37.7955C154.112 37.7765 154.188 37.7614 154.245 37.75L154.518 38.9545C154.427 38.9886 154.3 39.0227 154.137 39.0568C153.974 39.0947 153.768 39.1136 153.518 39.1136C153.139 39.1136 152.768 39.0322 152.404 38.8693C152.044 38.7064 151.745 38.4583 151.506 38.125C151.272 37.7917 151.154 37.3712 151.154 36.8636V28.1818ZM159.827 39.1818C159.04 39.1818 158.348 38.9943 157.754 38.6193C157.163 38.2443 156.701 37.7197 156.367 37.0455C156.038 36.3712 155.873 35.5833 155.873 34.6818C155.873 33.7727 156.038 32.9792 156.367 32.3011C156.701 31.6231 157.163 31.0966 157.754 30.7216C158.348 30.3466 159.04 30.1591 159.827 30.1591C160.615 30.1591 161.305 30.3466 161.896 30.7216C162.49 31.0966 162.952 31.6231 163.282 32.3011C163.615 32.9792 163.782 33.7727 163.782 34.6818C163.782 35.5833 163.615 36.3712 163.282 37.0455C162.952 37.7197 162.49 38.2443 161.896 38.6193C161.305 38.9943 160.615 39.1818 159.827 39.1818ZM159.827 37.9773C160.426 37.9773 160.918 37.8239 161.305 37.517C161.691 37.2102 161.977 36.8068 162.163 36.3068C162.348 35.8068 162.441 35.2652 162.441 34.6818C162.441 34.0985 162.348 33.5549 162.163 33.0511C161.977 32.5473 161.691 32.1402 161.305 31.8295C160.918 31.5189 160.426 31.3636 159.827 31.3636C159.229 31.3636 158.737 31.5189 158.35 31.8295C157.964 32.1402 157.678 32.5473 157.492 33.0511C157.307 33.5549 157.214 34.0985 157.214 34.6818C157.214 35.2652 157.307 35.8068 157.492 36.3068C157.678 36.8068 157.964 37.2102 158.35 37.517C158.737 37.8239 159.229 37.9773 159.827 37.9773ZM169.352 42.4545C168.704 42.4545 168.147 42.3712 167.681 42.2045C167.215 42.0417 166.827 41.8258 166.516 41.5568C166.21 41.2917 165.965 41.0076 165.783 40.7045L166.852 39.9545C166.973 40.1136 167.126 40.2955 167.312 40.5C167.497 40.7083 167.751 40.8883 168.073 41.0398C168.399 41.1951 168.825 41.2727 169.352 41.2727C170.056 41.2727 170.638 41.1023 171.096 40.7614C171.554 40.4205 171.783 39.8864 171.783 39.1591V37.3864H171.67C171.571 37.5455 171.431 37.7424 171.249 37.9773C171.071 38.2083 170.814 38.4148 170.477 38.5966C170.143 38.7746 169.692 38.8636 169.124 38.8636C168.42 38.8636 167.787 38.697 167.227 38.3636C166.67 38.0303 166.228 37.5455 165.903 36.9091C165.581 36.2727 165.42 35.5 165.42 34.5909C165.42 33.697 165.577 32.9186 165.891 32.2557C166.206 31.589 166.643 31.0739 167.204 30.7102C167.764 30.3428 168.412 30.1591 169.147 30.1591C169.715 30.1591 170.166 30.2538 170.499 30.4432C170.836 30.6288 171.094 30.8409 171.272 31.0795C171.454 31.3144 171.594 31.5076 171.692 31.6591H171.829V30.2727H173.124V39.25C173.124 40 172.954 40.6098 172.613 41.0795C172.276 41.553 171.821 41.8996 171.249 42.1193C170.681 42.3428 170.049 42.4545 169.352 42.4545ZM169.306 37.6591C169.844 37.6591 170.299 37.536 170.67 37.2898C171.041 37.0436 171.323 36.6894 171.516 36.2273C171.71 35.7652 171.806 35.2121 171.806 34.5682C171.806 33.9394 171.711 33.3845 171.522 32.9034C171.333 32.4223 171.052 32.0455 170.681 31.7727C170.31 31.5 169.852 31.3636 169.306 31.3636C168.738 31.3636 168.264 31.5076 167.886 31.7955C167.511 32.0833 167.228 32.4697 167.039 32.9545C166.853 33.4394 166.761 33.9773 166.761 34.5682C166.761 35.1742 166.855 35.7102 167.045 36.1761C167.238 36.6383 167.522 37.0019 167.897 37.267C168.276 37.5284 168.746 37.6591 169.306 37.6591ZM175.579 39V30.2727H176.874V31.5909H176.965C177.124 31.1591 177.412 30.8087 177.829 30.5398C178.246 30.2708 178.715 30.1364 179.238 30.1364C179.336 30.1364 179.46 30.1383 179.607 30.142C179.755 30.1458 179.867 30.1515 179.942 30.1591V31.5227C179.897 31.5114 179.793 31.4943 179.63 31.4716C179.471 31.4451 179.302 31.4318 179.124 31.4318C178.7 31.4318 178.321 31.5208 177.988 31.6989C177.658 31.8731 177.397 32.1155 177.204 32.4261C177.014 32.733 176.92 33.0833 176.92 33.4773V39H175.579ZM184.1 39.2045C183.547 39.2045 183.045 39.1004 182.594 38.892C182.144 38.6799 181.786 38.375 181.521 37.9773C181.255 37.5758 181.123 37.0909 181.123 36.5227C181.123 36.0227 181.221 35.6174 181.418 35.3068C181.615 34.9924 181.879 34.7462 182.208 34.5682C182.538 34.3902 182.901 34.2576 183.299 34.1705C183.701 34.0795 184.104 34.0076 184.509 33.9545C185.04 33.8864 185.469 33.8352 185.799 33.8011C186.132 33.7633 186.375 33.7008 186.526 33.6136C186.682 33.5265 186.759 33.375 186.759 33.1591V33.1136C186.759 32.553 186.606 32.1174 186.299 31.8068C185.996 31.4962 185.536 31.3409 184.918 31.3409C184.278 31.3409 183.776 31.4811 183.413 31.7614C183.049 32.0417 182.793 32.3409 182.646 32.6591L181.373 32.2045C181.6 31.6742 181.903 31.2614 182.282 30.9659C182.665 30.6667 183.081 30.4583 183.532 30.3409C183.987 30.2197 184.433 30.1591 184.873 30.1591C185.153 30.1591 185.475 30.1932 185.839 30.2614C186.206 30.3258 186.56 30.4602 186.901 30.6648C187.246 30.8693 187.532 31.178 187.759 31.5909C187.987 32.0038 188.1 32.5568 188.1 33.25V39H186.759V37.8182H186.691C186.6 38.0076 186.449 38.2102 186.237 38.4261C186.024 38.642 185.742 38.8258 185.39 38.9773C185.038 39.1288 184.608 39.2045 184.1 39.2045ZM184.305 38C184.835 38 185.282 37.8958 185.646 37.6875C186.013 37.4792 186.29 37.2102 186.475 36.8807C186.665 36.5511 186.759 36.2045 186.759 35.8409V34.6136C186.702 34.6818 186.577 34.7443 186.384 34.8011C186.195 34.8542 185.975 34.9015 185.725 34.9432C185.479 34.9811 185.238 35.0152 185.004 35.0455C184.772 35.072 184.585 35.0947 184.441 35.1136C184.093 35.1591 183.767 35.233 183.464 35.3352C183.165 35.4337 182.922 35.5833 182.737 35.7841C182.555 35.9811 182.464 36.25 182.464 36.5909C182.464 37.0568 182.636 37.4091 182.981 37.6477C183.329 37.8826 183.771 38 184.305 38ZM194.434 30.2727V31.4091H189.729V30.2727H194.434ZM191.138 39V29.0682C191.138 28.5682 191.256 28.1515 191.491 27.8182C191.726 27.4848 192.031 27.2348 192.406 27.0682C192.781 26.9015 193.176 26.8182 193.593 26.8182C193.923 26.8182 194.192 26.8447 194.4 26.8977C194.608 26.9508 194.763 27 194.866 27.0455L194.479 28.2045C194.411 28.1818 194.317 28.1534 194.195 28.1193C194.078 28.0852 193.923 28.0682 193.729 28.0682C193.286 28.0682 192.966 28.1799 192.769 28.4034C192.576 28.6269 192.479 28.9545 192.479 29.3864V39H191.138ZM198.631 39.2045C198.078 39.2045 197.576 39.1004 197.126 38.892C196.675 38.6799 196.317 38.375 196.052 37.9773C195.787 37.5758 195.654 37.0909 195.654 36.5227C195.654 36.0227 195.753 35.6174 195.95 35.3068C196.147 34.9924 196.41 34.7462 196.739 34.5682C197.069 34.3902 197.433 34.2576 197.83 34.1705C198.232 34.0795 198.635 34.0076 199.04 33.9545C199.571 33.8864 200.001 33.8352 200.33 33.8011C200.664 33.7633 200.906 33.7008 201.058 33.6136C201.213 33.5265 201.29 33.375 201.29 33.1591V33.1136C201.29 32.553 201.137 32.1174 200.83 31.8068C200.527 31.4962 200.067 31.3409 199.45 31.3409C198.809 31.3409 198.308 31.4811 197.944 31.7614C197.58 32.0417 197.325 32.3409 197.177 32.6591L195.904 32.2045C196.131 31.6742 196.434 31.2614 196.813 30.9659C197.196 30.6667 197.612 30.4583 198.063 30.3409C198.518 30.2197 198.965 30.1591 199.404 30.1591C199.684 30.1591 200.006 30.1932 200.37 30.2614C200.737 30.3258 201.092 30.4602 201.433 30.6648C201.777 30.8693 202.063 31.178 202.29 31.5909C202.518 32.0038 202.631 32.5568 202.631 33.25V39H201.29V37.8182H201.222C201.131 38.0076 200.98 38.2102 200.768 38.4261C200.556 38.642 200.273 38.8258 199.921 38.9773C199.569 39.1288 199.139 39.2045 198.631 39.2045ZM198.836 38C199.366 38 199.813 37.8958 200.177 37.6875C200.544 37.4792 200.821 37.2102 201.006 36.8807C201.196 36.5511 201.29 36.2045 201.29 35.8409V34.6136C201.234 34.6818 201.109 34.7443 200.915 34.8011C200.726 34.8542 200.506 34.9015 200.256 34.9432C200.01 34.9811 199.77 35.0152 199.535 35.0455C199.304 35.072 199.116 35.0947 198.972 35.1136C198.624 35.1591 198.298 35.233 197.995 35.3352C197.696 35.4337 197.453 35.5833 197.268 35.7841C197.086 35.9811 196.995 36.25 196.995 36.5909C196.995 37.0568 197.167 37.4091 197.512 37.6477C197.861 37.8826 198.302 38 198.836 38ZM205.079 39V30.2727H206.374V31.5909H206.465C206.624 31.1591 206.912 30.8087 207.329 30.5398C207.746 30.2708 208.215 30.1364 208.738 30.1364C208.836 30.1364 208.96 30.1383 209.107 30.142C209.255 30.1458 209.367 30.1515 209.442 30.1591V31.5227C209.397 31.5114 209.293 31.4943 209.13 31.4716C208.971 31.4451 208.802 31.4318 208.624 31.4318C208.2 31.4318 207.821 31.5208 207.488 31.6989C207.158 31.8731 206.897 32.1155 206.704 32.4261C206.514 32.733 206.42 33.0833 206.42 33.4773V39H205.079Z" fill="#F3F5FC"/>
</svg>
